<svg width="51" height="51" viewBox="0 0 51 51" fill="none" xmlns="http://www.w3.org/2000/svg">
<rect x="0.752611" y="1.13493" width="49.4948" height="49.4948" rx="24.7474" stroke="url(#paint0_linear_1201_2269)" stroke-width="0.505221"/>
<path d="M28 36.75H22C16.57 36.75 14.25 34.43 14.25 29V23C14.25 17.57 16.57 15.25 22 15.25H28C33.43 15.25 35.75 17.57 35.75 23V29C35.75 34.43 33.43 36.75 28 36.75ZM22 16.75C17.39 16.75 15.75 18.39 15.75 23V29C15.75 33.61 17.39 35.25 22 35.25H28C32.61 35.25 34.25 33.61 34.25 29V23C34.25 18.39 32.61 16.75 28 16.75H22Z" fill="url(#paint1_linear_1201_2269)"/>
<path d="M25 30.25C22.66 30.25 20.75 28.34 20.75 26C20.75 23.66 22.66 21.75 25 21.75C27.34 21.75 29.25 23.66 29.25 26C29.25 28.34 27.34 30.25 25 30.25ZM25 23.25C23.48 23.25 22.25 24.48 22.25 26C22.25 27.52 23.48 28.75 25 28.75C26.52 28.75 27.75 27.52 27.75 26C27.75 24.48 26.52 23.25 25 23.25Z" fill="url(#paint2_linear_1201_2269)"/>
<path d="M30 21.5C29.87 21.5 29.74 21.47 29.62 21.42C29.5 21.37 29.39 21.3 29.29 21.21C29.2 21.11 29.12 21 29.07 20.88C29.02 20.76 29 20.63 29 20.5C29 20.37 29.02 20.24 29.07 20.12C29.13 19.99 29.2 19.89 29.29 19.79C29.34 19.75 29.39 19.7 29.44 19.67C29.5 19.63 29.56 19.6 29.62 19.58C29.68 19.55 29.74 19.53 29.81 19.52C30.13 19.45 30.47 19.56 30.71 19.79C30.8 19.89 30.87 19.99 30.92 20.12C30.97 20.24 31 20.37 31 20.5C31 20.63 30.97 20.76 30.92 20.88C30.87 21 30.8 21.11 30.71 21.21C30.61 21.3 30.5 21.37 30.38 21.42C30.26 21.47 30.13 21.5 30 21.5Z" fill="url(#paint3_linear_1201_2269)"/>
<defs>
<linearGradient id="paint0_linear_1201_2269" x1="-1.20233" y1="35.1744" x2="44.0473" y2="34.9818" gradientUnits="userSpaceOnUse">
<stop stop-color="#73FFFF"/>
<stop offset="1" stop-color="#A4EF45"/>
</linearGradient>
<linearGradient id="paint1_linear_1201_2269" x1="13.518" y1="29.9956" x2="32.9753" y2="29.9128" gradientUnits="userSpaceOnUse">
<stop stop-color="#73FFFF"/>
<stop offset="1" stop-color="#A4EF45"/>
</linearGradient>
<linearGradient id="paint2_linear_1201_2269" x1="20.4606" y1="27.5796" x2="28.153" y2="27.5469" gradientUnits="userSpaceOnUse">
<stop stop-color="#73FFFF"/>
<stop offset="1" stop-color="#A4EF45"/>
</linearGradient>
<linearGradient id="paint3_linear_1201_2269" x1="28.9319" y1="20.8714" x2="30.7419" y2="20.8637" gradientUnits="userSpaceOnUse">
<stop stop-color="#73FFFF"/>
<stop offset="1" stop-color="#A4EF45"/>
</linearGradient>
</defs>
</svg>
