<svg width="50" height="51" viewBox="0 0 50 51" fill="none" xmlns="http://www.w3.org/2000/svg">
<path d="M17.983 21.0793C19.1914 21.0793 20.171 20.0997 20.171 18.8913C20.171 17.6829 19.1914 16.7033 17.983 16.7033C16.7746 16.7033 15.795 17.6829 15.795 18.8913C15.795 20.0997 16.7746 21.0793 17.983 21.0793Z" fill="url(#paint0_linear_1039_5368)"/>
<path d="M22.237 22.7373V34.8763H26.006V28.8733C26.006 27.2893 26.304 25.7553 28.268 25.7553C30.205 25.7553 30.229 27.5663 30.229 28.9733V34.8773H34V28.2203C34 24.9503 33.296 22.4373 29.474 22.4373C27.639 22.4373 26.409 23.4443 25.906 24.3973H25.855V22.7373H22.237ZM16.095 22.7373H19.87V34.8763H16.095V22.7373Z" fill="url(#paint1_linear_1039_5368)"/>
<rect x="0.252611" y="1.13493" width="49.4948" height="49.4948" rx="24.7474" stroke="url(#paint2_linear_1039_5368)" stroke-width="0.505221"/>
<defs>
<linearGradient id="paint0_linear_1039_5368" x1="15.646" y1="19.7045" x2="19.6062" y2="19.6877" gradientUnits="userSpaceOnUse">
<stop stop-color="#73FFFF"/>
<stop offset="1" stop-color="#A4EF45"/>
</linearGradient>
<linearGradient id="paint1_linear_1039_5368" x1="15.4854" y1="30.9692" x2="31.6889" y2="30.8699" gradientUnits="userSpaceOnUse">
<stop stop-color="#73FFFF"/>
<stop offset="1" stop-color="#A4EF45"/>
</linearGradient>
<linearGradient id="paint2_linear_1039_5368" x1="-1.70233" y1="35.1744" x2="43.5473" y2="34.9818" gradientUnits="userSpaceOnUse">
<stop stop-color="#73FFFF"/>
<stop offset="1" stop-color="#A4EF45"/>
</linearGradient>
</defs>
</svg>
