<svg width="50" height="51" viewBox="0 0 50 51" fill="none" xmlns="http://www.w3.org/2000/svg">
<path d="M20.1672 37.2572C29.979 37.2572 35.3464 29.1274 35.3464 22.0895C35.3464 21.862 35.3464 21.6312 35.3366 21.4037C36.3816 20.6473 37.2835 19.7107 38 18.638C37.0239 19.0684 35.9895 19.352 34.9304 19.4797C36.046 18.8129 36.8815 17.7637 37.2817 16.5271C36.2336 17.1481 35.0864 17.584 33.8904 17.8157C33.0863 16.9594 32.0223 16.3921 30.8631 16.2017C29.704 16.0113 28.5144 16.2085 27.4787 16.7626C26.4429 17.3168 25.6188 18.197 25.134 19.267C24.6492 20.3369 24.5307 21.5369 24.7969 22.681C22.6758 22.5746 20.6008 22.0236 18.7064 21.0637C16.8121 20.1038 15.1406 18.7564 13.8005 17.1089C13.1202 18.2839 12.9126 19.6738 13.2198 20.9963C13.527 22.3188 14.3261 23.4748 15.4547 24.2296C14.609 24.2009 13.7818 23.9738 13.04 23.5666V23.6397C13.0415 24.8706 13.4679 26.0633 14.2472 27.0161C15.0265 27.9689 16.1108 28.6234 17.317 28.869C16.8592 28.9951 16.3862 29.058 15.9114 29.0559C15.5766 29.0569 15.2425 29.0259 14.9136 28.9632C15.2545 30.0228 15.9183 30.9492 16.812 31.6128C17.7057 32.2763 18.7846 32.6436 19.8975 32.6634C18.0069 34.1483 15.6715 34.9536 13.2675 34.9497C12.8439 34.9515 12.4206 34.9271 12 34.8766C14.44 36.4322 17.2736 37.2581 20.1672 37.2572Z" fill="url(#paint0_linear_1039_5366)"/>
<rect x="0.252611" y="1.13493" width="49.4948" height="49.4948" rx="24.7474" stroke="url(#paint1_linear_1039_5366)" stroke-width="0.505221"/>
<defs>
<linearGradient id="paint0_linear_1039_5366" x1="11.1148" y1="30.6203" x2="34.6444" y2="30.497" gradientUnits="userSpaceOnUse">
<stop stop-color="#73FFFF"/>
<stop offset="1" stop-color="#A4EF45"/>
</linearGradient>
<linearGradient id="paint1_linear_1039_5366" x1="-1.70233" y1="35.1744" x2="43.5473" y2="34.9818" gradientUnits="userSpaceOnUse">
<stop stop-color="#73FFFF"/>
<stop offset="1" stop-color="#A4EF45"/>
</linearGradient>
</defs>
</svg>
